<?xml version="1.0" encoding="UTF-8"?>
<svg width="366px" height="100px" viewBox="0 0 366 100" version="1.1" xmlns="http://www.w3.org/2000/svg" xmlns:xlink="http://www.w3.org/1999/xlink">
    <!-- Generator: Sketch 50.2 (55047) - http://www.bohemiancoding.com/sketch -->
    <title>Artboard</title>
    <desc>Created with Sketch.</desc>
    <defs></defs>
    <g id="Artboard" stroke="none" stroke-width="1" fill="none" fill-rule="evenodd">
        <g id="Group-2" transform="translate(0.950000, 0.950000)">
            <g id="Group" stroke="#000000" stroke-linecap="round" stroke-width="1.9">
                <path d="M17.575,72.675 L17.575,12.825 C17.575,5.7456 23.316325,0 30.4,0 L104.5,0" id="Stroke-535" stroke-linejoin="round"></path>
                <path d="M83.125,98.325 L12.825,98.325 C5.741325,98.325 0,92.583675 0,85.5 C0,78.4206 5.741325,72.675 12.825,72.675 L83.125,72.675 C76.041325,72.675 70.3,78.4206 70.3,85.5 C70.3,92.583675 76.041325,98.325 83.125,98.325 C90.2044,98.325 95.95,92.583675 95.95,85.5 L95.95,10.6875 C95.95,4.783725 100.72945,0 106.6375,0 C112.537,0 117.325,4.783725 117.325,12.825 L95.95,12.825" id="Stroke-540" stroke-linejoin="round"></path>
                <polyline id="Path-2" points="28.5 61.275 44.65 31.3564941 67.45 48.925 82.65 17.575"></polyline>
            </g>
            <path d="M159.1725,43.195 C159.1725,35.975 163.5425,31.51 171.95,31.51 C179.3125,31.51 182.8275,34.36 184.4425,39.775 C184.585,40.25 184.4425,40.3925 184.015,40.5825 L183.16,40.8675 C182.685,40.9625 182.495,40.915 182.3525,40.4875 C180.9275,35.785 178.125,33.5525 171.95,33.5525 C164.92,33.5525 161.3575,37.1625 161.3575,43.1475 L161.3575,54.88 C161.3575,60.8175 165.0625,64.5225 171.95,64.5225 C178.315,64.5225 181.0225,62.0525 182.4475,57.35 C182.6375,56.9225 182.8275,56.8275 183.255,56.97 L184.1575,57.3025 C184.585,57.445 184.68,57.635 184.5375,58.0625 C182.9225,63.4775 179.5025,66.565 171.95,66.565 C163.685,66.565 159.1725,62.1 159.1725,54.8325 L159.1725,43.195 Z M214.978214,32.175 C215.453214,32.175 215.595714,32.3175 215.595714,32.7925 L215.595714,65.2825 C215.595714,65.7575 215.453214,65.9 214.978214,65.9 L213.980714,65.9 C213.553214,65.9 213.410714,65.7575 213.410714,65.2825 L213.410714,49.845 L193.318214,49.845 L193.318214,65.2825 C193.318214,65.7575 193.175714,65.9 192.748214,65.9 L191.750714,65.9 C191.275714,65.9 191.133214,65.7575 191.133214,65.2825 L191.133214,32.7925 C191.133214,32.3175 191.275714,32.175 191.750714,32.175 L192.748214,32.175 C193.175714,32.175 193.318214,32.3175 193.318214,32.7925 L193.318214,47.8025 L213.410714,47.8025 L213.410714,32.7925 C213.410714,32.3175 213.553214,32.175 213.980714,32.175 L214.978214,32.175 Z M249.788929,65.33 C249.931429,65.6625 249.836429,65.9 249.313929,65.9 L248.458929,65.9 C247.746429,65.9 247.508929,65.805 247.413929,65.3775 L243.186429,54.88 L227.416429,54.88 L223.236429,65.3775 C223.093929,65.805 222.856429,65.9 222.143929,65.9 L221.336429,65.9 C220.861429,65.9 220.766429,65.6625 220.908929,65.33 L234.066429,32.5075 C234.256429,32.08 234.446429,31.9375 234.873929,31.9375 L235.823929,31.9375 C236.251429,31.9375 236.488929,32.08 236.631429,32.5075 L249.788929,65.33 Z M235.823929,36.165 C235.491429,35.215 235.396429,34.36 235.348929,34.1225 L235.206429,34.1225 C235.206429,34.36 235.158929,35.215 234.826429,36.165 L228.081429,53.0275 L242.568929,53.0275 L235.823929,36.165 Z M269.352143,32.175 C275.337143,32.175 278.994643,35.6425 278.994643,41.675 C278.994643,47.1375 275.764643,50.415 270.634643,50.8425 C272.439643,51.6025 273.484643,52.79 274.529643,54.7375 L279.849643,65.2825 C280.087143,65.615 279.992143,65.9 279.517143,65.9 L278.614643,65.9 C277.854643,65.9 277.617143,65.805 277.427143,65.3775 L272.487143,55.5925 C270.919643,52.4575 269.114643,51.08 265.124643,51.08 L257.287143,51.08 L257.287143,65.2825 C257.287143,65.7575 257.144643,65.9 256.717143,65.9 L255.719643,65.9 C255.244643,65.9 255.102143,65.7575 255.102143,65.2825 L255.102143,32.7925 C255.102143,32.3175 255.244643,32.175 255.719643,32.175 L269.352143,32.175 Z M276.714643,41.675 C276.714643,36.925 273.959643,34.2175 269.114643,34.2175 L257.287143,34.2175 L257.287143,49.0375 L269.114643,49.0375 C273.864643,49.0375 276.714643,46.425 276.714643,41.675 Z M305.872857,32.175 C306.347857,32.175 306.490357,32.3175 306.490357,32.7925 L306.490357,33.6475 C306.490357,34.075 306.347857,34.2175 305.872857,34.2175 L295.565357,34.2175 L295.565357,65.2825 C295.565357,65.7575 295.422857,65.9 294.995357,65.9 L293.997857,65.9 C293.522857,65.9 293.380357,65.7575 293.380357,65.2825 L293.380357,34.2175 L283.072857,34.2175 C282.597857,34.2175 282.455357,34.075 282.455357,33.6475 L282.455357,32.7925 C282.455357,32.3175 282.597857,32.175 283.072857,32.175 L305.872857,32.175 Z M331.848571,32.175 C332.323571,32.175 332.466071,32.3175 332.466071,32.7925 L332.466071,33.6475 C332.466071,34.075 332.323571,34.2175 331.848571,34.2175 L314.036071,34.2175 L314.036071,47.8025 L329.806071,47.8025 C330.233571,47.8025 330.376071,47.945 330.376071,48.3725 L330.376071,49.2275 C330.376071,49.7025 330.233571,49.845 329.806071,49.845 L314.036071,49.845 L314.036071,63.8575 L332.513571,63.8575 C332.941071,63.8575 333.131071,64 333.131071,64.4275 L333.131071,65.2825 C333.131071,65.7575 332.941071,65.9 332.513571,65.9 L312.468571,65.9 C311.993571,65.9 311.851071,65.7575 311.851071,65.2825 L311.851071,32.7925 C311.851071,32.3175 311.993571,32.175 312.468571,32.175 L331.848571,32.175 Z M354.024286,32.175 C360.009286,32.175 363.666786,35.6425 363.666786,41.675 C363.666786,47.1375 360.436786,50.415 355.306786,50.8425 C357.111786,51.6025 358.156786,52.79 359.201786,54.7375 L364.521786,65.2825 C364.759286,65.615 364.664286,65.9 364.189286,65.9 L363.286786,65.9 C362.526786,65.9 362.289286,65.805 362.099286,65.3775 L357.159286,55.5925 C355.591786,52.4575 353.786786,51.08 349.796786,51.08 L341.959286,51.08 L341.959286,65.2825 C341.959286,65.7575 341.816786,65.9 341.389286,65.9 L340.391786,65.9 C339.916786,65.9 339.774286,65.7575 339.774286,65.2825 L339.774286,32.7925 C339.774286,32.3175 339.916786,32.175 340.391786,32.175 L354.024286,32.175 Z M361.386786,41.675 C361.386786,36.925 358.631786,34.2175 353.786786,34.2175 L341.959286,34.2175 L341.959286,49.0375 L353.786786,49.0375 C358.536786,49.0375 361.386786,46.425 361.386786,41.675 Z" id="Charter" fill="#000000"></path>
        </g>
    </g>
</svg>